<!-- Generator: Adobe Illustrator 23.0.1, SVG Export Plug-In  -->
<svg version="1.1" xmlns="http://www.w3.org/2000/svg" xmlns:xlink="http://www.w3.org/1999/xlink" x="0px" y="0px" width="200px"
	 height="200px" viewBox="0 0 200 200" style="enable-background:new 0 0 200 200;" xml:space="preserve">
<style type="text/css">
	.st0{fill:url(#SVGID_1_);}
	.st1{fill:#FFFFFF;}
	.st2{fill:url(#SVGID_2_);}
</style>
<defs>
</defs>
<linearGradient id="SVGID_1_" gradientUnits="userSpaceOnUse" x1="0" y1="100" x2="200" y2="100">
	<stop  offset="0" style="stop-color:#FF786B"/>
	<stop  offset="1" style="stop-color:#DF005F"/>
</linearGradient>
<circle class="st0" cx="100" cy="100" r="100"/>
<g>
	<path class="st1" d="M85.5,67.2c0-0.7,0-1.3-0.1-2c0-0.2-0.1-0.5-0.1-0.7c-0.1-0.6-0.2-1.1-0.4-1.6c0,0,0,0,0,0
		c-0.3-1-0.7-2-1.2-2.8c-0.1-0.2-0.3-0.4-0.4-0.7c-0.2-0.3-0.4-0.6-0.6-0.9c0,0-0.1-0.1-0.1-0.1c-0.5-0.7-1.1-1.4-1.8-1.9
		c0,0,0,0,0,0c-0.2-0.2-0.3-0.3-0.5-0.5c-0.1-0.1-0.2-0.2-0.3-0.2c-0.1-0.1-0.2-0.1-0.3-0.2c-0.1-0.1-0.2-0.2-0.4-0.3
		c-0.1,0-0.1-0.1-0.2-0.1c-0.3-0.2-0.7-0.4-1-0.6c-0.1,0-0.1-0.1-0.2-0.1c-0.1,0-0.2-0.1-0.2-0.1c-0.1-0.1-0.3-0.1-0.4-0.2
		c0,0-0.1,0-0.1,0c-0.2-0.1-0.4-0.2-0.5-0.2c-0.1,0-0.2-0.1-0.4-0.1c-0.1,0-0.2-0.1-0.3-0.1c-0.1,0-0.2-0.1-0.3-0.1
		c-0.1,0-0.2-0.1-0.3-0.1c-0.1,0-0.2-0.1-0.3-0.1c-0.1,0-0.2-0.1-0.4-0.1c-0.2,0-0.3-0.1-0.5-0.1c-0.1,0-0.1,0-0.2-0.1
		c-0.2,0-0.5-0.1-0.7-0.1c0,0,0,0,0,0c-0.1,0-0.3,0-0.4,0c-0.1,0-0.2,0-0.4,0c-0.1,0-0.1,0-0.2,0c-0.2,0-0.4,0-0.6,0
		c-0.1,0-0.3,0-0.4,0c-0.1,0-0.2,0-0.4,0h0H56.3v14.6c0,0,0,0,0,0v0c0,0,0,0,0,0v4.3h29.1V67.2z"/>
	<path class="st1" d="M129.1,52.6c-8,0-14.6,6.5-14.6,14.6v4.3h29.1v-4.3V52.6H129.1z"/>
	<path class="st1" d="M114.5,91H85.5V79.4H56.3V91v18v23.8c0,0,0,0,0,0v0c0,0,0,0,0,0v14.6h14.6h0c0.1,0,0.2,0,0.4,0
		c0.1,0,0.3,0,0.4,0c0.2,0,0.4,0,0.6,0c0.1,0,0.1,0,0.2,0c0.1,0,0.2,0,0.4,0c0.1,0,0.3,0,0.4,0c0,0,0,0,0,0c0.2,0,0.5-0.1,0.7-0.1
		c0.1,0,0.1,0,0.2-0.1c0.2,0,0.3-0.1,0.5-0.1c0.1,0,0.2-0.1,0.4-0.1c0.1,0,0.2-0.1,0.3-0.1c0.1,0,0.2-0.1,0.3-0.1
		c0.1,0,0.2-0.1,0.3-0.1c0.1,0,0.2-0.1,0.3-0.1c0.1,0,0.2-0.1,0.4-0.1c0.2-0.1,0.4-0.2,0.5-0.2c0,0,0.1,0,0.1,0
		c0.1-0.1,0.3-0.1,0.4-0.2c0.1,0,0.2-0.1,0.2-0.1c0.1,0,0.1-0.1,0.2-0.1c0.3-0.2,0.7-0.4,1-0.6c0.1,0,0.1-0.1,0.2-0.1
		c0.1-0.1,0.2-0.2,0.4-0.3c0.1-0.1,0.2-0.1,0.3-0.2c0.1-0.1,0.2-0.2,0.3-0.2c0.2-0.1,0.4-0.3,0.5-0.5c0,0,0,0,0,0
		c0.1-0.1,0.2-0.2,0.3-0.3c0.1-0.1,0.1-0.1,0.2-0.2c0.5-0.5,0.9-1,1.3-1.5c0,0,0.1-0.1,0.1-0.1c0.2-0.3,0.4-0.6,0.6-0.9
		c0.1-0.2,0.3-0.4,0.4-0.7c0.5-0.9,0.9-1.8,1.2-2.8c0,0,0,0,0,0c0.2-0.5,0.3-1.1,0.4-1.6c0-0.2,0.1-0.5,0.1-0.7
		c0.1-0.6,0.1-1.3,0.1-2V109h29.1v23.8c0,8,6.5,14.6,14.6,14.6h14.6v-14.6V109V91V79.4h-29.1V91z"/>
</g>
</svg>
