<?xml version="1.0" standalone="no"?>
<!DOCTYPE svg PUBLIC "-//W3C//DTD SVG 20010904//EN"
 "http://www.w3.org/TR/2001/REC-SVG-20010904/DTD/svg10.dtd">
<svg version="1.0" xmlns="http://www.w3.org/2000/svg"
 width="201.000000pt" height="201.000000pt" viewBox="0 0 201.000000 201.000000"
 preserveAspectRatio="xMidYMid meet">
<metadata>
Created by potrace 1.11, written by Peter Selinger 2001-2013
</metadata>
<g transform="translate(0.000000,201.000000) scale(0.100000,-0.100000)"
fill="#000000" stroke="none">
<path d="M790 1995 c-326 -73 -598 -302 -719 -606 -55 -137 -65 -198 -65 -379
0 -193 17 -274 90 -429 58 -124 114 -200 221 -301 140 -133 294 -213 483 -252
127 -27 346 -21 465 12 362 99 636 386 721 755 27 118 25 330 -4 448 -48 194
-141 356 -284 493 -125 119 -250 192 -428 247 -87 26 -381 34 -480 12z"/>
</g>
</svg>
